HIERARCHY
ROOT Hips
{
  OFFSET 5.84602e-005 68.8428 3.50346
  CHANNELS 6 Xposition Yposition Zposition Zrotation Xrotation Yrotation
  JOINT Spine
  {
    OFFSET 0 8.597 -4.6522
    CHANNELS 3 Zrotation Xrotation Yrotation
    JOINT Spine1
    {
      OFFSET 0 7.8454 0.4098
      CHANNELS 3 Zrotation Xrotation Yrotation
      JOINT Spine2
      {
        OFFSET 0 9.7078 -2.1609
        CHANNELS 3 Zrotation Xrotation Yrotation
        JOINT Neck
        {
          OFFSET 0 21.8761 -0.4549
          CHANNELS 3 Zrotation Xrotation Yrotation
          JOINT Head
          {
            OFFSET 0 12.3537 3.3602
            CHANNELS 3 Zrotation Xrotation Yrotation
            End Site
            {
              OFFSET 0.0001 18.9506 0.5657
            }
          }
        }
        JOINT LeftShoulder
        {
          OFFSET 2.2086 21.1115 7.2329
          CHANNELS 3 Zrotation Xrotation Yrotation
          JOINT LeftArm
          {
            OFFSET 13.1193 3.0282 -4.8998
            CHANNELS 3 Zrotation Xrotation Yrotation
            JOINT LeftForeArm
            {
              OFFSET 27.4081 -0.0973053 -0.2375
              CHANNELS 3 Zrotation Xrotation Yrotation
              JOINT LeftHand
              {
                OFFSET 22.8641 0.0662994 -0.1369
                CHANNELS 3 Zrotation Xrotation Yrotation
                JOINT LeftHandIndex1
                {
                  OFFSET 8.8614 0.775009 2.4612
                  CHANNELS 3 Zrotation Xrotation Yrotation
                  JOINT LeftHandIndex2
                  {
                    OFFSET 3.3146 -0.808304 0.5841
                    CHANNELS 3 Zrotation Xrotation Yrotation
                    JOINT LeftHandIndex3
                    {
                      OFFSET 2.2628 -0.552002 0.3989
                      CHANNELS 3 Zrotation Xrotation Yrotation
                      End Site
                      {
                        OFFSET 1.6102 -0.4807 0.2612
                      }
                    }
                  }
                }
                JOINT LeftHandMiddle1
                {
                  OFFSET 8.9937 0.895004 0.2143
                  CHANNELS 3 Zrotation Xrotation Yrotation
                  JOINT LeftHandMiddle2
                  {
                    OFFSET 4.0984 0.0113983 -0.0242
                    CHANNELS 3 Zrotation Xrotation Yrotation
                    JOINT LeftHandMiddle3
                    {
                      OFFSET 2.2716 0.00689697 -0.0138001
                      CHANNELS 3 Zrotation Xrotation Yrotation
                      End Site
                      {
                        OFFSET 2.0404 -0.1441 0.0027
                      }
                    }
                  }
                }
                JOINT LeftHandRing1
                {
                  OFFSET 8.5234 0.597198 -2.0164
                  CHANNELS 3 Zrotation Xrotation Yrotation
                  JOINT LeftHandRing2
                  {
                    OFFSET 3.7188 -0.188293 -0.2328
                    CHANNELS 3 Zrotation Xrotation Yrotation
                    JOINT LeftHandRing3
                    {
                      OFFSET 2.1191 -0.106598 -0.1332
                      CHANNELS 3 Zrotation Xrotation Yrotation
                      End Site
                      {
                        OFFSET 1.8737 -0.2304 -0.0886
                      }
                    }
                  }
                }
                JOINT LeftHandPinky1
                {
                  OFFSET 7.9094 -0.601089 -3.4825
                  CHANNELS 3 Zrotation Xrotation Yrotation
                  JOINT LeftHandPinky2
                  {
                    OFFSET 2.2874 -0.477005 -0.6314
                    CHANNELS 3 Zrotation Xrotation Yrotation
                    JOINT LeftHandPinky3
                    {
                      OFFSET 1.6774 -0.349396 -0.4633
                      CHANNELS 3 Zrotation Xrotation Yrotation
                      End Site
                      {
                        OFFSET 1.4888 -0.4091 -0.3416
                      }
                    }
                  }
                }
                JOINT LeftHandThumb1
                {
                  OFFSET 1.833 -1.3875 1.3896
                  CHANNELS 3 Zrotation Xrotation Yrotation
                  JOINT LeftHandThumb2
                  {
                    OFFSET 3.4129 -1.121 2.5732
                    CHANNELS 3 Zrotation Xrotation Yrotation
                    JOINT LeftHandThumb3
                    {
                      OFFSET 2.2474 -0.804199 1.6192
                      CHANNELS 3 Zrotation Xrotation Yrotation
                      End Site
                      {
                        OFFSET 1.6527 -0.5689 1.1317
                      }
                    }
                  }
                }
              }
            }
          }
        }
        JOINT RightShoulder
        {
          OFFSET -2.2086 21.1115 7.2329
          CHANNELS 3 Zrotation Xrotation Yrotation
          JOINT RightArm
          {
            OFFSET -13.1216 3.0287 -4.9007
            CHANNELS 3 Zrotation Xrotation Yrotation
            JOINT RightForeArm
            {
              OFFSET -27.4081 -0.0973053 -0.2375
              CHANNELS 3 Zrotation Xrotation Yrotation
              JOINT RightHand
              {
                OFFSET -22.8641 0.0664063 -0.1369
                CHANNELS 3 Zrotation Xrotation Yrotation
                JOINT RightHandIndex1
                {
                  OFFSET -8.8614 0.774994 2.4612
                  CHANNELS 3 Zrotation Xrotation Yrotation
                  JOINT RightHandIndex2
                  {
                    OFFSET -3.3146 -0.808304 0.5841
                    CHANNELS 3 Zrotation Xrotation Yrotation
                    JOINT RightHandIndex3
                    {
                      OFFSET -2.2628 -0.552002 0.3989
                      CHANNELS 3 Zrotation Xrotation Yrotation
                      End Site
                      {
                        OFFSET -1.6102 -0.4807 0.2612
                      }
                    }
                  }
                }
                JOINT RightHandMiddle1
                {
                  OFFSET -8.9937 0.894989 0.2143
                  CHANNELS 3 Zrotation Xrotation Yrotation
                  JOINT RightHandMiddle2
                  {
                    OFFSET -4.0984 0.0113983 -0.0242
                    CHANNELS 3 Zrotation Xrotation Yrotation
                    JOINT RightHandMiddle3
                    {
                      OFFSET -2.2716 0.00691223 -0.0138001
                      CHANNELS 3 Zrotation Xrotation Yrotation
                      End Site
                      {
                        OFFSET -2.0404 -0.1441 0.0027
                      }
                    }
                  }
                }
                JOINT RightHandRing1
                {
                  OFFSET -8.5234 0.597198 -2.0164
                  CHANNELS 3 Zrotation Xrotation Yrotation
                  JOINT RightHandRing2
                  {
                    OFFSET -3.7188 -0.188309 -0.2328
                    CHANNELS 3 Zrotation Xrotation Yrotation
                    JOINT RightHandRing3
                    {
                      OFFSET -2.1191 -0.106598 -0.1332
                      CHANNELS 3 Zrotation Xrotation Yrotation
                      End Site
                      {
                        OFFSET -1.8737 -0.2304 -0.0886
                      }
                    }
                  }
                }
                JOINT RightHandPinky1
                {
                  OFFSET -7.9094 -0.601105 -3.4825
                  CHANNELS 3 Zrotation Xrotation Yrotation
                  JOINT RightHandPinky2
                  {
                    OFFSET -2.2874 -0.477005 -0.6314
                    CHANNELS 3 Zrotation Xrotation Yrotation
                    JOINT RightHandPinky3
                    {
                      OFFSET -1.6774 -0.349396 -0.4633
                      CHANNELS 3 Zrotation Xrotation Yrotation
                      End Site
                      {
                        OFFSET -1.4888 -0.4091 -0.3416
                      }
                    }
                  }
                }
                JOINT RightHandThumb1
                {
                  OFFSET -1.833 -1.38751 1.3896
                  CHANNELS 3 Zrotation Xrotation Yrotation
                  JOINT RightHandThumb2
                  {
                    OFFSET -3.41299 -1.12099 2.5732
                    CHANNELS 3 Zrotation Xrotation Yrotation
                    JOINT RightHandThumb3
                    {
                      OFFSET -2.24741 -0.804108 1.6192
                      CHANNELS 3 Zrotation Xrotation Yrotation
                      End Site
                      {
                        OFFSET -1.6527 -0.5689 1.1317
                      }
                    }
                  }
                }
              }
            }
          }
        }
      }
    }
  }
  JOINT RightUpLeg
  {
    OFFSET -9.1966 3.8861 -0.7581
    CHANNELS 3 Zrotation Xrotation Yrotation
    JOINT RightLeg
    {
      OFFSET -0.7359 -41.0265 0
      CHANNELS 3 Zrotation Xrotation Yrotation
      JOINT RightFoot
      {
        OFFSET 0 -40.2855 0
        CHANNELS 3 Zrotation Xrotation Yrotation
        JOINT RightToeBase
        {
          OFFSET 0 -5.6122 11.7359
          CHANNELS 3 Zrotation Xrotation Yrotation
          End Site
          {
            OFFSET 0 0 7.8731
          }
        }
      }
    }
  }
  JOINT LeftUpLeg
  {
    OFFSET 9.1965 3.8864 -0.7581
    CHANNELS 3 Zrotation Xrotation Yrotation
    JOINT LeftLeg
    {
      OFFSET 0.7359 -41.0268 0
      CHANNELS 3 Zrotation Xrotation Yrotation
      JOINT LeftFoot
      {
        OFFSET 0 -40.2855 0
        CHANNELS 3 Zrotation Xrotation Yrotation
        JOINT LeftToeBase
        {
          OFFSET 0 -5.6122 11.7359
          CHANNELS 3 Zrotation Xrotation Yrotation
          End Site
          {
            OFFSET 0 0 7.8731
          }
        }
      }
    }
  }
}
MOTION
Frames:	5
Frame Time:	0.0333333
-0.0918737 1.06579 7.64303 -180 -89.9981 -180 -0.0243143 6.9344 -0.0999585 -0.0367447 13.8688 -0.199141 -0.0367446 13.8688 -0.199141 25.355 26.6047 -11.9848 -10.0879 3.25014 1.87371 8.59549 -2.20568 9.37793 -75.8751 -6.49318 -12.1447 -4.26441 -9.85341 -77.91 -47.7416 -28.2631 -5.73995 -4.28863e-006 4.248e-006 1.64701e-006 -8.60746e-006 5.53558e-006 -3.60654e-007 -1.21009e-006 5.6292e-006 -1.04384e-006 -4.28863e-006 4.248e-006 1.64701e-006 -0.0146005 -8.74196e-005 -2.18613e-006 -1.20824e-006 5.62935e-006 -1.04312e-006 -4.28863e-006 4.248e-006 1.64701e-006 -0.0187366 -0.00116665 5.53213e-005 -9.95441e-008 6.74947e-006 -2.05586e-006 -4.28863e-006 4.248e-006 1.64701e-006 -0.0122775 -0.00325153 0.000676835 9.10805e-007 3.54025e-006 -5.80669e-007 -4.28863e-006 4.248e-006 1.64701e-006 -8.60746e-006 5.53558e-006 -3.60654e-007 -1.21009e-006 5.6292e-006 -1.04384e-006 -14.5335 -5.59042 2.27822 72.9982 -5.73363 28.9679 4.30237 -11.5377 80.5037 69.2897 -12.3028 4.13223 -1.36766e-007 8.19601e-007 1.73286e-007 1.36766e-007 -8.19601e-007 -1.73286e-007 -1.36766e-007 8.19601e-007 1.73286e-007 -1.36766e-007 8.19601e-007 1.73286e-007 0.01497 -9.0258e-005 3.00154e-006 -1.36754e-007 8.19624e-007 1.73179e-007 -1.36766e-007 8.19601e-007 1.73286e-007 0.0190186 -0.00119284 -6.01829e-005 -1.3675e-007 8.19629e-007 1.73152e-007 -1.36766e-007 8.19601e-007 1.73286e-007 0.0121965 -0.00322994 -0.00067166 -1.36756e-007 8.19616e-007 1.73202e-007 -1.36766e-007 8.19601e-007 1.73286e-007 1.36766e-007 -8.19601e-007 -1.73286e-007 -1.36766e-007 8.19601e-007 1.73286e-007 -167.809 -37.9631 -173.975 2.04219 38.7049 -3.15136 -8.89539 15.0014 0.238088 9.93923e-017 0 -0 148.94 -45.9576 158.38 -3.43319 4.81078 1.06511 9.27302 16.1982 0.166834 2.13936e-006 1.73516e-006 1.03856e-006 
-0.0916028 1.06585 7.64317 -180 -89.9981 -180 -0.0243004 6.92813 -0.0999668 -0.0367265 13.8563 -0.199159 -0.0367265 13.8563 -0.199159 25.8999 26.5008 -12.2285 -10.0769 3.38761 1.63796 8.5955 -2.20567 9.37793 -75.8954 -6.48634 -12.1473 -4.2644 -9.85343 -77.91 -47.7416 -28.2631 -5.73996 1.59028e-015 3.18055e-015 6.36111e-015 1.59028e-015 3.18055e-015 3.18055e-015 3.18055e-015 -3.18055e-015 3.18055e-015 1.59028e-015 3.18055e-015 6.36111e-015 -0.0146262 -9.18043e-005 4.46716e-007 7.95139e-015 3.18055e-015 3.18055e-015 1.59028e-015 3.18055e-015 6.36111e-015 -0.0187664 -0.00117608 5.74347e-005 -1.59028e-015 0 3.18055e-015 1.59028e-015 3.18055e-015 6.36111e-015 -0.0122523 -0.00324296 0.000677439 -3.18055e-015 -9.54166e-015 -3.18055e-015 1.59028e-015 3.18055e-015 6.36111e-015 1.59028e-015 3.18055e-015 3.18055e-015 3.18055e-015 -3.18055e-015 3.18055e-015 -14.5335 -5.5904 2.27823 73.0211 -5.71644 28.9699 4.30434 -11.526 80.5381 69.2897 -12.3028 4.13223 4.18991e-007 3.73841e-007 -5.64776e-007 2.78299e-015 3.18055e-015 6.36111e-015 -4.18991e-007 -3.73841e-007 5.64776e-007 4.18991e-007 3.73841e-007 -5.64776e-007 0.0149669 -8.99266e-005 2.15565e-007 -7.95139e-015 3.18055e-015 -0 4.18991e-007 3.73841e-007 -5.64776e-007 0.0190283 -0.00119207 -5.82114e-005 -3.97569e-016 3.18055e-015 3.18055e-015 4.18991e-007 3.73841e-007 -5.64776e-007 0.0122686 -0.00324844 -0.000676795 -4.205e-007 -3.73378e-007 5.64912e-007 4.18991e-007 3.73841e-007 -5.64776e-007 2.78299e-015 3.18055e-015 6.36111e-015 -4.18991e-007 -3.73841e-007 5.64776e-007 -167.809 -37.963 -173.974 2.02979 38.6595 -3.14289 -8.895 15.0019 0.238076 -1.71179e-006 3.47379e-008 -1.89262e-008 148.962 -45.9773 158.381 -3.44622 4.79143 1.0654 9.27263 16.1899 0.167575 1.59454e-006 1.08199e-006 -2.23682e-006 
-0.0913307 1.06591 7.6433 -180 -89.9981 -180 -0.0242866 6.92189 -0.0999753 -0.0367083 13.8438 -0.199177 -0.0367083 13.8438 -0.199177 26.4426 26.3945 -12.4703 -10.0652 3.52501 1.40221 8.5955 -2.20567 9.37793 -75.9157 -6.47949 -12.1499 -4.26441 -9.85342 -77.91 -47.7416 -28.2632 -5.73995 2.78296e-007 4.70224e-007 6.50105e-007 5.56593e-007 9.40448e-007 1.30021e-006 2.78296e-007 4.70224e-007 6.50105e-007 2.78296e-007 4.70224e-007 6.50105e-007 -0.0145975 -8.76416e-005 6.19115e-007 2.39424e-006 -1.61919e-006 1.10218e-006 2.78296e-007 4.70224e-007 6.50105e-007 -0.018782 -0.00117443 5.59464e-005 2.78318e-007 4.70118e-007 6.50179e-007 2.78296e-007 4.70224e-007 6.50105e-007 -0.0122902 -0.00325 0.000677459 2.78327e-007 4.70155e-007 6.50147e-007 2.78296e-007 4.70224e-007 6.50105e-007 5.56593e-007 9.40448e-007 1.30021e-006 2.78296e-007 4.70224e-007 6.50105e-007 -14.5335 -5.59039 2.27823 73.044 -5.69928 28.9719 4.30626 -11.5143 80.5724 69.2898 -12.3028 4.13223 -1.63966e-006 -2.72499e-007 1.82494e-007 1.6859e-006 7.46394e-007 1.63013e-006 -1.63966e-006 -2.72499e-007 1.82494e-007 -1.63966e-006 -2.72499e-007 1.82494e-007 0.0149809 -9.05996e-005 4.01194e-006 -1.63971e-006 -2.72475e-007 1.82531e-007 -1.63966e-006 -2.72499e-007 1.82494e-007 0.0189927 -0.00119221 -5.28411e-005 -1.63972e-006 -2.72466e-007 1.82556e-007 -1.63966e-006 -2.72499e-007 1.82494e-007 0.012231 -0.00323786 -0.000668881 -1.63969e-006 -2.72479e-007 1.82571e-007 -1.63966e-006 -2.72499e-007 1.82494e-007 1.6859e-006 7.46394e-007 1.63013e-006 -1.63966e-006 -2.72499e-007 1.82494e-007 -167.809 -37.963 -173.972 2.01738 38.614 -3.13443 -8.89462 15.0025 0.238074 8.66928e-007 -1.22958e-007 -1.31067e-009 148.984 -45.9975 158.382 -3.45925 4.77099 1.06563 9.27226 16.1822 0.168264 7.08624e-007 4.11673e-007 -4.10056e-007 
-0.0910597 1.06597 7.64344 -180 -89.9981 -180 -0.0242727 6.91563 -0.0999842 -0.03669 13.8313 -0.199195 -0.0366901 13.8313 -0.199195 26.9835 26.2856 -12.7103 -10.0525 3.66232 1.16645 8.5955 -2.20565 9.37792 -75.936 -6.47263 -12.1525 -4.2644 -9.85341 -77.91 -47.7416 -28.2631 -5.73996 -1.59028e-015 -3.18055e-015 -6.36111e-015 -1.59028e-015 3.18055e-015 -3.18055e-015 6.36111e-015 -3.18055e-015 -3.18055e-015 -1.59028e-015 -3.18055e-015 -6.36111e-015 -0.0146131 -8.71571e-005 -3.91444e-006 -4.77083e-015 0 6.36111e-015 -1.59028e-015 -3.18055e-015 -6.36111e-015 -0.0187631 -0.0011756 5.39573e-005 -6.36111e-015 3.18055e-015 6.36111e-015 -1.59028e-015 -3.18055e-015 -6.36111e-015 -0.0123096 -0.00325447 0.000677297 -1.59028e-015 -3.18055e-015 2.22639e-014 -1.59028e-015 -3.18055e-015 -6.36111e-015 -1.59028e-015 3.18055e-015 -3.18055e-015 6.36111e-015 -3.18055e-015 -3.18055e-015 -14.5335 -5.59038 2.27823 73.0669 -5.68211 28.9738 4.30823 -11.5025 80.6068 69.2897 -12.3028 4.13222 -1.21433e-007 -3.64666e-007 1.09693e-006 4.24681e-007 3.83715e-007 -5.53978e-007 7.7597e-007 6.89161e-007 2.01497e-009 -1.21433e-007 -3.64666e-007 1.09693e-006 0.0149819 -9.1323e-005 1.60864e-006 -1.22347e-007 -3.64517e-007 1.09698e-006 -1.21433e-007 -3.64666e-007 1.09693e-006 0.0190067 -0.00119017 -6.10583e-005 3.04459e-007 1.90641e-008 5.42946e-007 -1.21433e-007 -3.64666e-007 1.09693e-006 0.0123047 -0.00325792 -0.000677919 -1.22151e-007 -3.6435e-007 1.09702e-006 -1.21433e-007 -3.64666e-007 1.09693e-006 4.24681e-007 3.83715e-007 -5.53978e-007 7.7597e-007 6.89161e-007 2.01497e-009 -167.809 -37.9628 -173.971 2.00501 38.5687 -3.126 -8.89424 15.003 0.238065 3.8763e-015 -1.59028e-015 1.59028e-015 149.006 -46.0176 158.383 -3.47227 4.75058 1.0658 9.2719 16.1745 0.168961 -3.97569e-015 0 -3.18055e-015 
-0.0907884 1.06603 7.64357 -180 -89.9981 -180 -0.024259 6.90937 -0.0999932 -0.0366717 13.8188 -0.199213 -0.0366717 13.8188 -0.199213 27.5236 26.1761 -12.9491 -10.0388 3.79954 0.930684 8.5955 -2.20569 9.37793 -75.9562 -6.46579 -12.155 -4.2644 -9.85342 -77.91 -47.7416 -28.2632 -5.73996 1.59028e-015 -3.18055e-015 6.36111e-015 2.78088e-007 4.70219e-007 6.50269e-007 4.77083e-015 0 -6.36111e-015 1.59028e-015 -3.18055e-015 6.36111e-015 -0.0145844 -8.88901e-005 4.49681e-006 3.18055e-015 0 -0 1.59028e-015 -3.18055e-015 6.36111e-015 -0.0187498 -0.00117572 5.97272e-005 -3.18055e-015 0 3.18055e-015 1.59028e-015 -3.18055e-015 6.36111e-015 -0.0122704 -0.00325164 0.000676675 3.18055e-015 3.18055e-015 -6.36111e-015 1.59028e-015 -3.18055e-015 6.36111e-015 2.78088e-007 4.70219e-007 6.50269e-007 4.77083e-015 0 -6.36111e-015 -14.5335 -5.59042 2.27822 73.0898 -5.66494 28.9758 4.31014 -11.4908 80.6412 69.2898 -12.3028 4.13223 3.97569e-016 0 -0 -3.97569e-016 3.18055e-015 -3.18055e-015 -3.57812e-015 4.77083e-015 -3.18055e-015 3.97569e-016 0 -0 0.0149967 -8.89618e-005 3.58285e-006 4.37326e-015 0 -3.18055e-015 3.97569e-016 0 -0 0.0189958 -0.00119035 -6.03798e-005 -8.93371e-007 -1.04813e-006 1.1002e-006 3.97569e-016 0 -0 0.0122267 -0.00323823 -0.000668934 -3.18055e-015 3.18055e-015 6.36111e-015 3.97569e-016 0 -0 -3.97569e-016 3.18055e-015 -3.18055e-015 -3.57812e-015 4.77083e-015 -3.18055e-015 -167.809 -37.9628 -173.969 1.99264 38.5232 -3.11757 -8.89386 15.0036 0.238055 -2.09427e-006 -6.31016e-007 -1.51521e-006 149.027 -46.0381 158.384 -3.48527 4.72953 1.06589 9.27154 16.1671 0.169618 2.27754e-007 1.63805e-006 -3.2575e-007 
